<?xml version="1.0" encoding="utf-8"?>
<!-- Generator: Adobe Illustrator 16.0.0, SVG Export Plug-In . SVG Version: 6.00 Build 0)  -->
<!DOCTYPE svg PUBLIC "-//W3C//DTD SVG 1.1//EN" "http://www.w3.org/Graphics/SVG/1.1/DTD/svg11.dtd">
<svg version="1.1" id="Layer_1" xmlns="http://www.w3.org/2000/svg" xmlns:xlink="http://www.w3.org/1999/xlink" x="0px" y="0px"
	 width="32px" height="32px" viewBox="0 0 32 32" enable-background="new 0 0 32 32" xml:space="preserve">
<title>search</title>
<path fill="#FFFFFF" d="M19.427,20.427C18.037,21.417,16.337,22,14.5,22C9.806,22,6,18.193,6,13.5C6,8.806,9.806,5,14.5,5
	c4.693,0,8.5,3.806,8.5,8.5c0,2.347-0.951,4.473-2.49,6.01l5.997,5.997c0.275,0.275,0.269,0.716-0.008,0.992
	c-0.278,0.278-0.72,0.28-0.992,0.008L19.427,20.427L19.427,20.427z M14.5,21c4.143,0,7.5-3.357,7.5-7.5C22,9.358,18.643,6,14.5,6
	C10.358,6,7,9.358,7,13.5C7,17.643,10.358,21,14.5,21L14.5,21z"/>
</svg>
